{"title":"Defiance - AVM","uid":5045180,"size":415910324,"categoryP":"video","categoryS":"handheld","magnet":"?xt=urn:btih:e812842b6d8a5a10162faa47a505c762ee340590&amp;dn=Defiance+-+AVM&amp;tr=udp%3A%2F%2Ftracker.openbittorrent.com%3A80&amp;tr=udp%3A%2F%2Fopen.demonii.com%3A1337&amp;tr=udp%3A%2F%2Ftracker.coppersurfer.tk%3A6969&amp;tr=udp%3A%2F%2Fexodus.desync.com%3A6969","seeders":0,"leechers":0,"uploader":"AVIDM","files":1,"time":1249591208,"description":"AVIDMobile - http://www.avidmobile.com.ar (Mobile media)\n\nVideo\nID                               : 1\nFormat                           : MPEG-4 Visual\nFormat profile                   : Advanced Simple@L5\nFormat settings, BVOP            : Yes\nFormat settings, QPel            : No\nFormat settings, GMC             : No warppoints\nFormat settings, Matrix          : Default (H.263)\nCodec ID                         : 20\nDuration                         : 2h 11mn\nBit rate mode                    : Variable\nBit rate                         : 356 Kbps\nMaximum bit rate                 : 1 193 Kbps\nWidth                            : 320 pixels\nHeight                           : 240 pixels\nDisplay aspect ratio             : 4/3\nFrame rate mode                  : Variable\nFrame rate                       : 23.976 fps\nMinimum frame rate               : 23.974 fps\nMaximum frame rate               : 23.981 fps\nResolution                       : 24 bits\nColorimetry                      : 4:2:0\nScan type                        : Progressive\nBits/(Pixel*Frame)               : 0.193\nStream size                      : 334 MiB (84%)\n\nAudio\nID                               : 2\nFormat                           : AAC\nFormat/Info                      : Advanced Audio Codec\nFormat version                   : Version 4\nFormat profile                   : LC\nFormat settings, SBR             : No\nCodec ID                         : 40\nDuration                         : 2h 11mn\nBit rate mode                    : Variable\nBit rate                         : 62.8 Kbps\nMaximum bit rate                 : 94.1 Kbps\nChannel(s)                       : 2 channels\nChannel positions                : L R\nSampling rate                    : 22.05 KHz\nResolution                       : 16 bits\nStream size                      : 59.0 MiB (15%)","torrent":{"xt":"urn:btih:e812842b6d8a5a10162faa47a505c762ee340590","amp;dn":"Defiance+-+AVM","amp;tr":["udp%3A%2F%2Ftracker.openbittorrent.com%3A80","udp%3A%2F%2Fopen.demonii.com%3A1337","udp%3A%2F%2Ftracker.coppersurfer.tk%3A6969","udp%3A%2F%2Fexodus.desync.com%3A6969"],"infoHash":"e812842b6d8a5a10162faa47a505c762ee340590","infoHashBuffer":{"type":"Buffer","data":[232,18,132,43,109,138,90,16,22,47,170,71,165,5,199,98,238,52,5,144]},"announce":[],"urlList":[]}}